<svg xmlns="http://www.w3.org/2000/svg"
  xmlns:xlink="http://www.w3.org/1999/xlink" style="margin:auto;background:transparent;display:block;z-index:1;position:relative" width="1920" height="975" preserveAspectRatio="xMidYMid" viewBox="0 0 1920 975">
  <g transform="translate(960,487.5) scale(1,1) translate(-960,-487.5)">
    <defs>
      <path id="path-dragfu5kfze-1" d="M-35 -35L35 -35L35 35L-35 35Z" fill="none" stroke="inherit" stroke-width="4.333333333333334" transform="scale(0.3)"></path>
      <path id="path-dragfu5kfze-2" d="M0 -37A37 37 0 0 1 0 37A37 37 0 0 1 0 -37" fill="none" stroke="inherit" stroke-width="4.333333333333334" transform="scale(0.3)"></path>
      <path id="path-dragfu5kfze-3" d="M0 -34.641L40 34.641L-40 34.641Z" fill="none" stroke="inherit" stroke-width="4.333333333333334" transform="scale(0.3)"></path>
    </defs>
    <path id="path0" d="M 54.10375854604656 421.5788121900259
c 0 30.314121571661637 -7.41728506540657 8.70724768547728 -16.124532750883848 8.70724768547728
S 21.85469304427887 451.8929337616875 21.85469304427887 421.5788121900259
s 7.41728506540657 -8.70724768547728 16.124532750883848 -8.70724768547728
S 54.10375854604656 391.2646906183642 54.10375854604656 421.5788121900259
z" fill="none" stroke="none"></path>
    <use xlink:href="#path-dragfu5kfze-2" x="0" y="0" stroke="#0024ff">
      <animateMotion begin="-0.20792820797723768s" dur="1.5641529999095696s" keyPoints="1;0" keyTimes="0;1" repeatCount="indefinite" calcMode="linear">
        <mpath xlink:href="#path0"></mpath>
      </animateMotion>
    </use>
    <path id="path1" d="M 100.39119797726742 735.9749402100538
c 0 54.231285972958894 -13.269357206149515 15.577071502871172 -28.846428709020685 15.577071502871172
S 42.698340559226054 790.2062261830126 42.698340559226054 735.9749402100538
s 13.269357206149515 -15.577071502871172 28.846428709020685 -15.577071502871172
S 100.39119797726742 681.7436542370949 100.39119797726742 735.9749402100538
z" fill="none" stroke="none"></path>
    <use xlink:href="#path-dragfu5kfze-1" x="0" y="0" stroke="#7dff00">
      <animateMotion begin="-0.23445286549094901s" dur="1.28104506223142s" keyPoints="1;0" keyTimes="0;1" repeatCount="indefinite" calcMode="linear">
        <mpath xlink:href="#path1"></mpath>
      </animateMotion>
    </use>
    <path id="path2" d="M 119.47634532769771 658.9651187556373
c 0 31.89167535334361 -7.803282267307479 9.160374835534867 -16.963657102842348 9.160374835534867
S 85.54903112201302 690.8567941089809 85.54903112201302 658.9651187556373
s 7.803282267307479 -9.160374835534867 16.963657102842348 -9.160374835534867
S 119.47634532769771 627.0734434022936 119.47634532769771 658.9651187556373
z" fill="none" stroke="none"></path>
    <use xlink:href="#path-dragfu5kfze-1" x="0" y="0" stroke="#7dff00">
      <animateMotion begin="-0.026712667545650905s" dur="1.3929506078972949s" keyPoints="1;0" keyTimes="0;1" repeatCount="indefinite" calcMode="linear">
        <mpath xlink:href="#path2"></mpath>
      </animateMotion>
    </use>
    <path id="path3" d="M 172.22178120454896 358.12459449068706
c 0 59.742514250405904 -14.617849231482294 17.16008388043574 -31.77793311191803 17.16008388043574
S 108.6659149807129 417.867108741093 108.6659149807129 358.12459449068706
s 14.617849231482294 -17.16008388043574 31.77793311191803 -17.16008388043574
S 172.22178120454896 298.38208024028114 172.22178120454896 358.12459449068706
z" fill="none" stroke="none"></path>
    <use xlink:href="#path-dragfu5kfze-1" x="0" y="0" stroke="#0024ff">
      <animateMotion begin="-0.37532968891594043s" dur="1.7684160842236016s" keyPoints="0;1" keyTimes="0;1" repeatCount="indefinite" calcMode="linear">
        <mpath xlink:href="#path3"></mpath>
      </animateMotion>
    </use>
    <path id="path4" d="M 215.2020205914589 128.3714650740902
c 0 34.19691433312149 -8.367330102785044 9.822517946747663 -18.189848049532706 9.822517946747663
S 178.82232449239348 162.5683794072117 178.82232449239348 128.3714650740902
s 8.367330102785044 -9.822517946747663 18.189848049532706 -9.822517946747663
S 215.2020205914589 94.1745507409687 215.2020205914589 128.3714650740902
z" fill="none" stroke="none"></path>
    <use xlink:href="#path-dragfu5kfze-3" x="0" y="0" stroke="#ff0000">
      <animateMotion begin="-0.49268718077025536s" dur="1.3215013799446247s" keyPoints="0;1" keyTimes="0;1" repeatCount="indefinite" calcMode="linear">
        <mpath xlink:href="#path4"></mpath>
      </animateMotion>
    </use>
    <path id="path5" d="M 242.62401973590335 814.8441658761427
c 0 34.074195584434854 -8.337303174914911 9.787268944465332 -18.124572119380243 9.787268944465332
S 206.37487549714285 848.9183614605776 206.37487549714285 814.8441658761427
s 8.337303174914911 -9.787268944465332 18.124572119380243 -9.787268944465332
S 242.62401973590335 780.7699702917079 242.62401973590335 814.8441658761427
z" fill="none" stroke="none"></path>
    <use xlink:href="#path-dragfu5kfze-1" x="0" y="0" stroke="#ff0000">
      <animateMotion begin="-0.1920532637509249s" dur="1.5153293785216893s" keyPoints="1;0" keyTimes="0;1" repeatCount="indefinite" calcMode="linear">
        <mpath xlink:href="#path5"></mpath>
      </animateMotion>
    </use>
    <path id="path6" d="M 293.71578798549655 830.9986008749793
c 0 65.17951698423003 -15.94817968763075 18.721776155044797 -34.66995584267555 18.721776155044797
S 224.37587630014542 896.1781178592094 224.37587630014542 830.9986008749793
s 15.94817968763075 -18.721776155044797 34.66995584267555 -18.721776155044797
S 293.71578798549655 765.8190838907492 293.71578798549655 830.9986008749793
z" fill="none" stroke="none"></path>
    <use xlink:href="#path-dragfu5kfze-2" x="0" y="0" stroke="#7dff00">
      <animateMotion begin="-0.4031866417088953s" dur="1.6479022492188837s" keyPoints="0;1" keyTimes="0;1" repeatCount="indefinite" calcMode="linear">
        <mpath xlink:href="#path6"></mpath>
      </animateMotion>
    </use>
    <path id="path7" d="M 311.84242419129293 391.55341525592894
c 0 36.68830790839268 -8.976926403117355 10.538130994963854 -19.51505739808121 10.538130994963854
S 272.81230939513046 428.2417231643216 272.81230939513046 391.55341525592894
s 8.976926403117355 -10.538130994963854 19.51505739808121 -10.538130994963854
S 311.84242419129293 354.86510734753625 311.84242419129293 391.55341525592894
z" fill="none" stroke="none"></path>
    <use xlink:href="#path-dragfu5kfze-3" x="0" y="0" stroke="#ff0000">
      <animateMotion begin="-0.19725572683040654s" dur="1.1430137618887628s" keyPoints="0;1" keyTimes="0;1" repeatCount="indefinite" calcMode="linear">
        <mpath xlink:href="#path7"></mpath>
      </animateMotion>
    </use>
    <path id="path8" d="M 388.067211015803 552.2790833647312
c 0 62.501645809894434 -15.292955889655019 17.95260039220372 -33.24555628185874 17.95260039220372
S 321.57609845208555 614.7807291746255 321.57609845208555 552.2790833647312
s 15.292955889655019 -17.95260039220372 33.24555628185874 -17.95260039220372
S 388.067211015803 489.7774375548367 388.067211015803 552.2790833647312
z" fill="none" stroke="none"></path>
    <use xlink:href="#path-dragfu5kfze-2" x="0" y="0" stroke="#0024ff">
      <animateMotion begin="-0.08708860195491366s" dur="1.231439946958661s" keyPoints="1;0" keyTimes="0;1" repeatCount="indefinite" calcMode="linear">
        <mpath xlink:href="#path8"></mpath>
      </animateMotion>
    </use>
    <path id="path9" d="M 411.2497592369167 96.82288735651086
c 0 34.709002887501434 -8.492628366090775 9.969607212367434 -18.46223557845821 9.969607212367434
S 374.3252880800003 131.5318902440123 374.3252880800003 96.82288735651086
s 8.492628366090775 -9.969607212367434 18.46223557845821 -9.969607212367434
S 411.2497592369167 62.11388446900943 411.2497592369167 96.82288735651086
z" fill="none" stroke="none"></path>
    <use xlink:href="#path-dragfu5kfze-1" x="0" y="0" stroke="#0024ff">
      <animateMotion begin="-0.4684306523134161s" dur="1.9086268926285823s" keyPoints="1;0" keyTimes="0;1" repeatCount="indefinite" calcMode="linear">
        <mpath xlink:href="#path9"></mpath>
      </animateMotion>
    </use>
    <path id="path10" d="M 407.2571261340776 750.2850802301019
c 0 25.656505856459418 -6.277655688282623 7.369421894940472 -13.647077583223094 7.369421894940472
S 379.9629709676314 775.9415860865613 379.9629709676314 750.2850802301019
s 6.277655688282623 -7.369421894940472 13.647077583223094 -7.369421894940472
S 407.2571261340776 724.6285743736426 407.2571261340776 750.2850802301019
z" fill="none" stroke="none"></path>
    <use xlink:href="#path-dragfu5kfze-1" x="0" y="0" stroke="#7dff00">
      <animateMotion begin="-0.46187609544374403s" dur="1.1105385531966416s" keyPoints="1;0" keyTimes="0;1" repeatCount="indefinite" calcMode="linear">
        <mpath xlink:href="#path10"></mpath>
      </animateMotion>
    </use>
    <path id="path11" d="M 456.9811278563046 700.425802627552
c 0 36.20740967869879 -8.859259815000765 10.400000652392205 -19.25926046739297 10.400000652392205
S 418.4626069215187 736.6332123062508 418.4626069215187 700.425802627552
s 8.859259815000765 -10.400000652392205 19.25926046739297 -10.400000652392205
S 456.9811278563046 664.2183929488532 456.9811278563046 700.425802627552
z" fill="none" stroke="none"></path>
    <use xlink:href="#path-dragfu5kfze-3" x="0" y="0" stroke="#0024ff">
      <animateMotion begin="-0.22693381834794685s" dur="1.6530287088001003s" keyPoints="0;1" keyTimes="0;1" repeatCount="indefinite" calcMode="linear">
        <mpath xlink:href="#path11"></mpath>
      </animateMotion>
    </use>
    <path id="path12" d="M 501.0022423262499 484.988450238277
c 0 28.394614915592932 -6.9476185431769935 8.155900028946906 -15.1035185721239 8.155900028946906
S 470.7952051820021 513.3830651538699 470.7952051820021 484.988450238277
s 6.9476185431769935 -8.155900028946906 15.1035185721239 -8.155900028946906
S 501.0022423262499 456.5938353226841 501.0022423262499 484.988450238277
z" fill="none" stroke="none"></path>
    <use xlink:href="#path-dragfu5kfze-2" x="0" y="0" stroke="#ff0000">
      <animateMotion begin="-0.43671979245610454s" dur="1.2679077527245475s" keyPoints="0;1" keyTimes="0;1" repeatCount="indefinite" calcMode="linear">
        <mpath xlink:href="#path12"></mpath>
      </animateMotion>
    </use>
    <path id="path13" d="M 553.7048253897117 470.7747536640811
c 0 38.35086090926602 -9.38372128630977 11.015672814363644 -20.399394100673412 11.015672814363644
S 512.906037188365 509.12561457334715 512.906037188365 470.7747536640811
s 9.38372128630977 -11.015672814363644 20.399394100673412 -11.015672814363644
S 553.7048253897117 432.4238927548151 553.7048253897117 470.7747536640811
z" fill="none" stroke="none"></path>
    <use xlink:href="#path-dragfu5kfze-1" x="0" y="0" stroke="#0024ff">
      <animateMotion begin="-0.2266807998573273s" dur="1.556904299477772s" keyPoints="1;0" keyTimes="0;1" repeatCount="indefinite" calcMode="linear">
        <mpath xlink:href="#path13"></mpath>
      </animateMotion>
    </use>
    <path id="path14" d="M 603.8007266807692 651.2583592223249
c 0 64.51690694970567 -15.786051700459899 18.531451996192057 -34.317503696651954 18.531451996192057
S 535.1657192874654 715.7752661720306 535.1657192874654 651.2583592223249
s 15.786051700459899 -18.531451996192057 34.317503696651954 -18.531451996192057
S 603.8007266807692 586.7414522726192 603.8007266807692 651.2583592223249
z" fill="none" stroke="none"></path>
    <use xlink:href="#path-dragfu5kfze-2" x="0" y="0" stroke="#ff0000">
      <animateMotion begin="-0.3992658205386922s" dur="2.099829120699964s" keyPoints="0;1" keyTimes="0;1" repeatCount="indefinite" calcMode="linear">
        <mpath xlink:href="#path14"></mpath>
      </animateMotion>
    </use>
    <path id="path15" d="M 608.2719476346741 854.505115177096
c 0 20.037322498666207 -4.902749122014071 5.75540114323391 -10.658150265247981 5.75540114323391
S 586.9556471041782 874.5424376757621 586.9556471041782 854.505115177096
s 4.902749122014071 -5.75540114323391 10.658150265247981 -5.75540114323391
S 608.2719476346741 834.4677926784298 608.2719476346741 854.505115177096
z" fill="none" stroke="none"></path>
    <use xlink:href="#path-dragfu5kfze-1" x="0" y="0" stroke="#7dff00">
      <animateMotion begin="-0.20409859632613997s" dur="1.9819642119824008s" keyPoints="0;1" keyTimes="0;1" repeatCount="indefinite" calcMode="linear">
        <mpath xlink:href="#path15"></mpath>
      </animateMotion>
    </use>
    <path id="path16" d="M 667.6201284483006 99.52450453761963
c 0 64.61574889245009 -15.8102364311314 18.559842766980342 -34.37007919811174 18.559842766980342
S 598.8799700520772 164.14025343006972 598.8799700520772 99.52450453761963
s 15.8102364311314 -18.559842766980342 34.37007919811174 -18.559842766980342
S 667.6201284483006 34.90875564516955 667.6201284483006 99.52450453761963
z" fill="none" stroke="none"></path>
    <use xlink:href="#path-dragfu5kfze-3" x="0" y="0" stroke="#ff0000">
      <animateMotion begin="-0.20243854083283894s" dur="1.4096942129144583s" keyPoints="1;0" keyTimes="0;1" repeatCount="indefinite" calcMode="linear">
        <mpath xlink:href="#path16"></mpath>
      </animateMotion>
    </use>
    <path id="path17" d="M 706.6204269511085 233.52363944167914
c 0 20.52635586153787 -5.022406221440116 5.895868172994921 -10.918274394435038 5.895868172994921
S 684.7838781622385 254.049995303217 684.7838781622385 233.52363944167914
s 5.022406221440116 -5.895868172994921 10.918274394435038 -5.895868172994921
S 706.6204269511085 212.99728358014127 706.6204269511085 233.52363944167914
z" fill="none" stroke="none"></path>
    <use xlink:href="#path-dragfu5kfze-3" x="0" y="0" stroke="#7dff00">
      <animateMotion begin="-0.07114364105450707s" dur="1.1228725200765306s" keyPoints="0;1" keyTimes="0;1" repeatCount="indefinite" calcMode="linear">
        <mpath xlink:href="#path17"></mpath>
      </animateMotion>
    </use>
    <path id="path18" d="M 726.8209332803409 701.5206873280034
c 0 24.439674109783958 -5.979920260904585 7.019906393235818 -12.999826654140403 7.019906393235818
S 700.8212799720601 725.9603614377874 700.8212799720601 701.5206873280034
s 5.979920260904585 -7.019906393235818 12.999826654140403 -7.019906393235818
S 726.8209332803409 677.0810132182195 726.8209332803409 701.5206873280034
z" fill="none" stroke="none"></path>
    <use xlink:href="#path-dragfu5kfze-2" x="0" y="0" stroke="#ff0000">
      <animateMotion begin="-0.4521465328352103s" dur="2.110693365972054s" keyPoints="1;0" keyTimes="0;1" repeatCount="indefinite" calcMode="linear">
        <mpath xlink:href="#path18"></mpath>
      </animateMotion>
    </use>
    <path id="path19" d="M 756.3348832343024 177.52093159550722
c 0 18.98282200403725 -4.644733043541028 5.452512703287295 -10.097245746828323 5.452512703287295
S 736.1403917406458 196.50375359954447 736.1403917406458 177.52093159550722
s 4.644733043541028 -5.452512703287295 10.097245746828323 -5.452512703287295
S 756.3348832343024 158.53810959146998 756.3348832343024 177.52093159550722
z" fill="none" stroke="none"></path>
    <use xlink:href="#path-dragfu5kfze-1" x="0" y="0" stroke="#7dff00">
      <animateMotion begin="-0.48286466156423336s" dur="1.3448023004894296s" keyPoints="0;1" keyTimes="0;1" repeatCount="indefinite" calcMode="linear">
        <mpath xlink:href="#path19"></mpath>
      </animateMotion>
    </use>
    <path id="path20" d="M 812.9403022158917 571.8851548452353
c 0 32.328797041250624 -7.910237573923023 9.285931065040073 -17.196168638963098 9.285931065040073
S 778.5479649379656 604.2139518864859 778.5479649379656 571.8851548452353
s 7.910237573923023 -9.285931065040073 17.196168638963098 -9.285931065040073
S 812.9403022158917 539.5563578039847 812.9403022158917 571.8851548452353
z" fill="none" stroke="none"></path>
    <use xlink:href="#path-dragfu5kfze-3" x="0" y="0" stroke="#0024ff">
      <animateMotion begin="-0.17972663758668123s" dur="1.7346453082206141s" keyPoints="1;0" keyTimes="0;1" repeatCount="indefinite" calcMode="linear">
        <mpath xlink:href="#path20"></mpath>
      </animateMotion>
    </use>
    <path id="path21" d="M 862.0460249603556 319.10702686477055
c 0 30.866343790281228 -7.552403267834768 8.865864705719076 -16.418267973553846 8.865864705719076
S 829.2094890132479 349.9733706550518 829.2094890132479 319.10702686477055
s 7.552403267834768 -8.865864705719076 16.418267973553846 -8.865864705719076
S 862.0460249603556 288.2406830744893 862.0460249603556 319.10702686477055
z" fill="none" stroke="none"></path>
    <use xlink:href="#path-dragfu5kfze-3" x="0" y="0" stroke="#0024ff">
      <animateMotion begin="-0.24927104910975711s" dur="1.2592033415730415s" keyPoints="1;0" keyTimes="0;1" repeatCount="indefinite" calcMode="linear">
        <mpath xlink:href="#path21"></mpath>
      </animateMotion>
    </use>
    <path id="path22" d="M 894.4612758483643 908.7994626950574
c 0 57.586131141935844 -14.090223577282172 16.540697242896467 -30.630920820178638 16.540697242896467
S 833.199434208007 966.3855938369933 833.199434208007 908.7994626950574
s 14.090223577282172 -16.540697242896467 30.630920820178638 -16.540697242896467
S 894.4612758483643 851.2133315531215 894.4612758483643 908.7994626950574
z" fill="none" stroke="none"></path>
    <use xlink:href="#path-dragfu5kfze-3" x="0" y="0" stroke="#0024ff">
      <animateMotion begin="-0.41959453934687746s" dur="1.4935800476079564s" keyPoints="0;1" keyTimes="0;1" repeatCount="indefinite" calcMode="linear">
        <mpath xlink:href="#path22"></mpath>
      </animateMotion>
    </use>
    <path id="path23" d="M 917.3008601549594 230.65610219600268
c 0 29.80431527537249 -7.292545226952842 8.560813962075077 -15.853359189027918 8.560813962075077
S 885.5941417769035 260.4604174713752 885.5941417769035 230.65610219600268
s 7.292545226952842 -8.560813962075077 15.853359189027918 -8.560813962075077
S 917.3008601549594 200.8517869206302 917.3008601549594 230.65610219600268
z" fill="none" stroke="none"></path>
    <use xlink:href="#path-dragfu5kfze-3" x="0" y="0" stroke="#7dff00">
      <animateMotion begin="-0.36348106023873095s" dur="1.4389680743915183s" keyPoints="0;1" keyTimes="0;1" repeatCount="indefinite" calcMode="linear">
        <mpath xlink:href="#path23"></mpath>
      </animateMotion>
    </use>
    <path id="path24" d="M 964.3315042400188 807.5565423759554
c 0 28.965795679868375 -7.087375538691197 8.319962588898363 -15.407338127589561 8.319962588898363
S 933.5168279848397 836.5223380558238 933.5168279848397 807.5565423759554
s 7.087375538691197 -8.319962588898363 15.407338127589561 -8.319962588898363
S 964.3315042400188 778.590746696087 964.3315042400188 807.5565423759554
z" fill="none" stroke="none"></path>
    <use xlink:href="#path-dragfu5kfze-2" x="0" y="0" stroke="#ff0000">
      <animateMotion begin="-0.3693865986688941s" dur="1.2617452047226576s" keyPoints="1;0" keyTimes="0;1" repeatCount="indefinite" calcMode="linear">
        <mpath xlink:href="#path24"></mpath>
      </animateMotion>
    </use>
    <path id="path25" d="M 1014.5441073037155 288.4297089394078
c 0 39.40433142950829 -9.641485349773305 11.318265410603445 -20.95975076037675 11.318265410603445
S 972.6246057829619 327.83404036891613 972.6246057829619 288.4297089394078
s 9.641485349773305 -11.318265410603445 20.95975076037675 -11.318265410603445
S 1014.5441073037155 249.02537750989953 1014.5441073037155 288.4297089394078
z" fill="none" stroke="none"></path>
    <use xlink:href="#path-dragfu5kfze-1" x="0" y="0" stroke="#ff0000">
      <animateMotion begin="-0.15739999232895252s" dur="2.0909247993579676s" keyPoints="0;1" keyTimes="0;1" repeatCount="indefinite" calcMode="linear">
        <mpath xlink:href="#path25"></mpath>
      </animateMotion>
    </use>
    <path id="path26" d="M 1041.976754374432 295.9479780609376
c 0 62.52277828484087 -15.298126601609997 17.95867035841174 -33.25679696002174 17.95867035841174
S 975.4631604543886 358.47075634577845 975.4631604543886 295.9479780609376
s 15.298126601609997 -17.95867035841174 33.25679696002174 -17.95867035841174
S 1041.976754374432 233.42519977609675 1041.976754374432 295.9479780609376
z" fill="none" stroke="none"></path>
    <use xlink:href="#path-dragfu5kfze-3" x="0" y="0" stroke="#ff0000">
      <animateMotion begin="-0.3668755494144477s" dur="1.6179928905371317s" keyPoints="0;1" keyTimes="0;1" repeatCount="indefinite" calcMode="linear">
        <mpath xlink:href="#path26"></mpath>
      </animateMotion>
    </use>
    <path id="path27" d="M 1102.8830927050599 215.53833780688436
c 0 62.7075606085292 -15.343339297831612 18.01174613223711 -33.355085430068726 18.01174613223711
S 1036.1729218449223 278.24589841541354 1036.1729218449223 215.53833780688436
s 15.343339297831612 -18.01174613223711 33.355085430068726 -18.01174613223711
S 1102.8830927050599 152.83077719835515 1102.8830927050599 215.53833780688436
z" fill="none" stroke="none"></path>
    <use xlink:href="#path-dragfu5kfze-2" x="0" y="0" stroke="#ff0000">
      <animateMotion begin="-0.3785077000626083s" dur="1.13584871962811s" keyPoints="0;1" keyTimes="0;1" repeatCount="indefinite" calcMode="linear">
        <mpath xlink:href="#path27"></mpath>
      </animateMotion>
    </use>
    <path id="path28" d="M 1117.296785960333 373.7822560962136
c 0 56.49366734673719 -13.822918606116545 16.226904450658555 -30.0498230567751 16.226904450658555
S 1057.1971398467829 430.2759234429508 1057.1971398467829 373.7822560962136
s 13.822918606116545 -16.226904450658555 30.0498230567751 -16.226904450658555
S 1117.296785960333 317.2885887494764 1117.296785960333 373.7822560962136
z" fill="none" stroke="none"></path>
    <use xlink:href="#path-dragfu5kfze-3" x="0" y="0" stroke="#ff0000">
      <animateMotion begin="-0.5298535453107864s" dur="1.2423400441835828s" keyPoints="0;1" keyTimes="0;1" repeatCount="indefinite" calcMode="linear">
        <mpath xlink:href="#path28"></mpath>
      </animateMotion>
    </use>
    <path id="path29" d="M 1142.3854336895936 507.99717160665614
c 0 42.575272023068706 -10.417353792878512 12.22906749598782 -22.646421288866332 12.22906749598782
S 1097.0925911118609 550.5724436297248 1097.0925911118609 507.99717160665614
s 10.417353792878512 -12.22906749598782 22.646421288866332 -12.22906749598782
S 1142.3854336895936 465.42189958358745 1142.3854336895936 507.99717160665614
z" fill="none" stroke="none"></path>
    <use xlink:href="#path-dragfu5kfze-1" x="0" y="0" stroke="#0024ff">
      <animateMotion begin="-0.4594113032391316s" dur="1.072611865076483s" keyPoints="0;1" keyTimes="0;1" repeatCount="indefinite" calcMode="linear">
        <mpath xlink:href="#path29"></mpath>
      </animateMotion>
    </use>
    <path id="path30" d="M 1186.5564682505153 350.71626405312895
c 0 28.354100604640152 -6.937705467092803 8.144262939630682 -15.081968406723485 8.144262939630682
S 1156.3925314370683 379.0703646577691 1156.3925314370683 350.71626405312895
s 6.937705467092803 -8.144262939630682 15.081968406723485 -8.144262939630682
S 1186.5564682505153 322.3621634484888 1186.5564682505153 350.71626405312895
z" fill="none" stroke="none"></path>
    <use xlink:href="#path-dragfu5kfze-1" x="0" y="0" stroke="#ff0000">
      <animateMotion begin="-0.39364152275379594s" dur="1.5075683236616635s" keyPoints="1;0" keyTimes="0;1" repeatCount="indefinite" calcMode="linear">
        <mpath xlink:href="#path30"></mpath>
      </animateMotion>
    </use>
    <path id="path31" d="M 1231.8758426703446 532.4803264347969
c 0 22.09934533294513 -5.4072866240184885 6.347684297760836 -11.754970921779325 6.347684297760836
S 1208.3659008267857 554.5796717677421 1208.3659008267857 532.4803264347969
s 5.4072866240184885 -6.347684297760836 11.754970921779325 -6.347684297760836
S 1231.8758426703446 510.3809811018518 1231.8758426703446 532.4803264347969
z" fill="none" stroke="none"></path>
    <use xlink:href="#path-dragfu5kfze-2" x="0" y="0" stroke="#ff0000">
      <animateMotion begin="-0.45716235047993364s" dur="1.7095430548263102s" keyPoints="1;0" keyTimes="0;1" repeatCount="indefinite" calcMode="linear">
        <mpath xlink:href="#path31"></mpath>
      </animateMotion>
    </use>
    <path id="path32" d="M 1270.2742311813065 384.00977536178686
c 0 59.49287123049349 -14.55676636490798 17.08837790663111 -31.645144271539092 17.08837790663111
S 1206.9839426382284 443.50264659228037 1206.9839426382284 384.00977536178686
s 14.55676636490798 -17.08837790663111 31.645144271539092 -17.08837790663111
S 1270.2742311813065 324.51690413129336 1270.2742311813065 384.00977536178686
z" fill="none" stroke="none"></path>
    <use xlink:href="#path-dragfu5kfze-3" x="0" y="0" stroke="#0024ff">
      <animateMotion begin="-0.23042267177876516s" dur="1.2917382713665366s" keyPoints="0;1" keyTimes="0;1" repeatCount="indefinite" calcMode="linear">
        <mpath xlink:href="#path32"></mpath>
      </animateMotion>
    </use>
    <path id="path33" d="M 1297.268520911331 155.40280503947145
c 0 46.73506714356912 -11.43517600321372 13.423902264642193 -24.859078267855914 13.423902264642193
S 1247.5503643756192 202.13787218304057 1247.5503643756192 155.40280503947145
s 11.43517600321372 -13.423902264642193 24.859078267855914 -13.423902264642193
S 1297.268520911331 108.66773789590232 1297.268520911331 155.40280503947145
z" fill="none" stroke="none"></path>
    <use xlink:href="#path-dragfu5kfze-2" x="0" y="0" stroke="#ff0000">
      <animateMotion begin="-0.5299774020976417s" dur="2.1052893216194843s" keyPoints="0;1" keyTimes="0;1" repeatCount="indefinite" calcMode="linear">
        <mpath xlink:href="#path33"></mpath>
      </animateMotion>
    </use>
    <path id="path34" d="M 1320.7590342485717 488.0070505012291
c 0 20.96417526443066 -5.129532245552182 6.021624809996042 -11.151157055548225 6.021624809996042
S 1298.456720137475 508.97122576565977 1298.456720137475 488.0070505012291
s 5.129532245552182 -6.021624809996042 11.151157055548225 -6.021624809996042
S 1320.7590342485717 467.04287523679847 1320.7590342485717 488.0070505012291
z" fill="none" stroke="none"></path>
    <use xlink:href="#path-dragfu5kfze-1" x="0" y="0" stroke="#0024ff">
      <animateMotion begin="-0.34262752649651207s" dur="1.2769437216643198s" keyPoints="0;1" keyTimes="0;1" repeatCount="indefinite" calcMode="linear">
        <mpath xlink:href="#path34"></mpath>
      </animateMotion>
    </use>
    <path id="path35" d="M 1394.1680823951453 687.182935562009
c 0 47.27067581511794 -11.566229188805453 13.577747308597708 -25.14397649740316 13.577747308597708
S 1343.880129400339 734.4536113771269 1343.880129400339 687.182935562009
s 11.566229188805453 -13.577747308597708 25.14397649740316 -13.577747308597708
S 1394.1680823951453 639.9122597468911 1394.1680823951453 687.182935562009
z" fill="none" stroke="none"></path>
    <use xlink:href="#path-dragfu5kfze-2" x="0" y="0" stroke="#7dff00">
      <animateMotion begin="-0.027841291498571827s" dur="1.8365628317673708s" keyPoints="0;1" keyTimes="0;1" repeatCount="indefinite" calcMode="linear">
        <mpath xlink:href="#path35"></mpath>
      </animateMotion>
    </use>
    <path id="path36" d="M 1392.434040183317 140.56922179554937
c 0 20.784551662627138 -5.085581789791745 5.9700307967120505 -11.055612586503795 5.9700307967120505
S 1370.3228150103096 161.3537734581765 1370.3228150103096 140.56922179554937
s 5.085581789791745 -5.9700307967120505 11.055612586503795 -5.9700307967120505
S 1392.434040183317 119.78467013292223 1392.434040183317 140.56922179554937
z" fill="none" stroke="none"></path>
    <use xlink:href="#path-dragfu5kfze-1" x="0" y="0" stroke="#0024ff">
      <animateMotion begin="-0.3772338462845349s" dur="1.4283884038190624s" keyPoints="1;0" keyTimes="0;1" repeatCount="indefinite" calcMode="linear">
        <mpath xlink:href="#path36"></mpath>
      </animateMotion>
    </use>
    <path id="path37" d="M 1435.114061850676 737.7674539469879
c 0 23.667116675325975 -5.790890250345717 6.798001598231929 -12.588891848577646 6.798001598231929
S 1409.9362781535206 761.4345706223138 1409.9362781535206 737.7674539469879
s 5.790890250345717 -6.798001598231929 12.588891848577646 -6.798001598231929
S 1435.114061850676 714.1003372716619 1435.114061850676 737.7674539469879
z" fill="none" stroke="none"></path>
    <use xlink:href="#path-dragfu5kfze-2" x="0" y="0" stroke="#0024ff">
      <animateMotion begin="-0.32336551021626675s" dur="1.2762921261657034s" keyPoints="0;1" keyTimes="0;1" repeatCount="indefinite" calcMode="linear">
        <mpath xlink:href="#path37"></mpath>
      </animateMotion>
    </use>
    <path id="path38" d="M 1491.315266494061 517.6337488926822
c 0 58.87762057254943 -14.406226310304646 16.911656972966327 -31.317883283270973 16.911656972966327
S 1428.6794999275191 576.5113694652316 1428.6794999275191 517.6337488926822
s 14.406226310304646 -16.911656972966327 31.317883283270973 -16.911656972966327
S 1491.315266494061 458.7561283201328 1491.315266494061 517.6337488926822
z" fill="none" stroke="none"></path>
    <use xlink:href="#path-dragfu5kfze-1" x="0" y="0" stroke="#0024ff">
      <animateMotion begin="-0.5095398587704286s" dur="1.9782964239121879s" keyPoints="0;1" keyTimes="0;1" repeatCount="indefinite" calcMode="linear">
        <mpath xlink:href="#path38"></mpath>
      </animateMotion>
    </use>
    <path id="path39" d="M 1516.9802873372662 813.9434359651618
c 0 44.684972368895906 -10.933557068985168 12.835045254895633 -23.7686023238808 12.835045254895633
S 1469.4430826895048 858.6284083340578 1469.4430826895048 813.9434359651618
s 10.933557068985168 -12.835045254895633 23.7686023238808 -12.835045254895633
S 1516.9802873372662 769.2584635962659 1516.9802873372662 813.9434359651618
z" fill="none" stroke="none"></path>
    <use xlink:href="#path-dragfu5kfze-1" x="0" y="0" stroke="#0024ff">
      <animateMotion begin="-0.3187012755642277s" dur="1.570311192278585s" keyPoints="1;0" keyTimes="0;1" repeatCount="indefinite" calcMode="linear">
        <mpath xlink:href="#path39"></mpath>
      </animateMotion>
    </use>
    <path id="path40" d="M 1565.9632713496803 934.6618490887622
c 0 42.512017482135825 -10.401876617969402 12.210898638485823 -22.612775256455222 12.210898638485823
S 1520.7377208367698 977.173866570898 1520.7377208367698 934.6618490887622
s 10.401876617969402 -12.210898638485823 22.612775256455222 -12.210898638485823
S 1565.9632713496803 892.1498316066264 1565.9632713496803 934.6618490887622
z" fill="none" stroke="none"></path>
    <use xlink:href="#path-dragfu5kfze-2" x="0" y="0" stroke="#7dff00">
      <animateMotion begin="-0.07580717488783886s" dur="1.7654312038792586s" keyPoints="0;1" keyTimes="0;1" repeatCount="indefinite" calcMode="linear">
        <mpath xlink:href="#path40"></mpath>
      </animateMotion>
    </use>
    <path id="path41" d="M 1610.701249266671 573.3336740384328
c 0 34.92994599475269 -8.5466889136097 10.033069594237475 -18.579758507847174 10.033069594237475
S 1573.5417322509768 608.2636200331855 1573.5417322509768 573.3336740384328
s 8.5466889136097 -10.033069594237475 18.579758507847174 -10.033069594237475
S 1610.701249266671 538.4037280436802 1610.701249266671 573.3336740384328
z" fill="none" stroke="none"></path>
    <use xlink:href="#path-dragfu5kfze-1" x="0" y="0" stroke="#0024ff">
      <animateMotion begin="-0.4770610106456872s" dur="1.5175823077557609s" keyPoints="0;1" keyTimes="0;1" repeatCount="indefinite" calcMode="linear">
        <mpath xlink:href="#path41"></mpath>
      </animateMotion>
    </use>
    <path id="path42" d="M 1630.3782223284625 303.228738412778
c 0 42.27328758074838 -10.34346398252354 12.142327283831982 -22.48579126635552 12.142327283831982
S 1585.4066397957513 345.5020259935264 1585.4066397957513 303.228738412778
s 10.34346398252354 -12.142327283831982 22.48579126635552 -12.142327283831982
S 1630.3782223284625 260.9554508320296 1630.3782223284625 303.228738412778
z" fill="none" stroke="none"></path>
    <use xlink:href="#path-dragfu5kfze-3" x="0" y="0" stroke="#0024ff">
      <animateMotion begin="-0.2330792370112643s" dur="1.465241681955081s" keyPoints="1;0" keyTimes="0;1" repeatCount="indefinite" calcMode="linear">
        <mpath xlink:href="#path42"></mpath>
      </animateMotion>
    </use>
    <path id="path43" d="M 1663.768715345161 203.34997074680356
c 0 41.61406214599617 -10.182164142105446 11.95297529725422 -22.135139439359666 11.95297529725422
S 1619.4984364664417 244.96403289279974 1619.4984364664417 203.34997074680356
s 10.182164142105446 -11.95297529725422 22.135139439359666 -11.95297529725422
S 1663.768715345161 161.7359086008074 1663.768715345161 203.34997074680356
z" fill="none" stroke="none"></path>
    <use xlink:href="#path-dragfu5kfze-1" x="0" y="0" stroke="#ff0000">
      <animateMotion begin="-0.22949528267609112s" dur="2.120463009869258s" keyPoints="0;1" keyTimes="0;1" repeatCount="indefinite" calcMode="linear">
        <mpath xlink:href="#path43"></mpath>
      </animateMotion>
    </use>
    <path id="path44" d="M 1737.6189585494437 381.37662372567434
c 0 55.43674033325259 -13.56430880494478 15.923319031891701 -29.48762783683648 15.923319031891701
S 1678.6437028757707 436.81336405892694 1678.6437028757707 381.37662372567434
s 13.56430880494478 -15.923319031891701 29.48762783683648 -15.923319031891701
S 1737.6189585494437 325.93988339242173 1737.6189585494437 381.37662372567434
z" fill="none" stroke="none"></path>
    <use xlink:href="#path-dragfu5kfze-1" x="0" y="0" stroke="#7dff00">
      <animateMotion begin="-0.33749077947135186s" dur="1.7171168580466796s" keyPoints="0;1" keyTimes="0;1" repeatCount="indefinite" calcMode="linear">
        <mpath xlink:href="#path44"></mpath>
      </animateMotion>
    </use>
    <path id="path45" d="M 1738.783924144216 519.3538655898344
c 0 27.750483473965467 -6.790011913842614 7.970883551032634 -14.760895464875247 7.970883551032634
S 1709.2621332144656 547.1043490637999 1709.2621332144656 519.3538655898344
s 6.790011913842614 -7.970883551032634 14.760895464875247 -7.970883551032634
S 1738.783924144216 491.60338211586895 1738.783924144216 519.3538655898344
z" fill="none" stroke="none"></path>
    <use xlink:href="#path-dragfu5kfze-1" x="0" y="0" stroke="#0024ff">
      <animateMotion begin="-0.011065535706521936s" dur="1.3934984849722123s" keyPoints="0;1" keyTimes="0;1" repeatCount="indefinite" calcMode="linear">
        <mpath xlink:href="#path45"></mpath>
      </animateMotion>
    </use>
    <path id="path46" d="M 1797.6407038278758 444.58715869699
c 0 61.74302472406487 -15.107335836739274 17.734698590954803 -32.842034427694074 17.734698590954803
S 1731.9566349724878 506.33018342105487 1731.9566349724878 444.58715869699
s 15.107335836739274 -17.734698590954803 32.842034427694074 -17.734698590954803
S 1797.6407038278758 382.84413397292514 1797.6407038278758 444.58715869699
z" fill="none" stroke="none"></path>
    <use xlink:href="#path-dragfu5kfze-1" x="0" y="0" stroke="#ff0000">
      <animateMotion begin="-0.38284974842483216s" dur="1.6748869821093595s" keyPoints="1;0" keyTimes="0;1" repeatCount="indefinite" calcMode="linear">
        <mpath xlink:href="#path46"></mpath>
      </animateMotion>
    </use>
    <path id="path47" d="M 1836.1654873492498 33.281528357999406
c 0 46.15000070472338 -11.292021449028061 13.255851266250334 -24.547872715278395 13.255851266250334
S 1787.0697419186931 79.43152906272279 1787.0697419186931 33.281528357999406
s 11.292021449028061 -13.255851266250334 24.547872715278395 -13.255851266250334
S 1836.1654873492498 -12.868472346723976 1836.1654873492498 33.281528357999406
z" fill="none" stroke="none"></path>
    <use xlink:href="#path-dragfu5kfze-2" x="0" y="0" stroke="#0024ff">
      <animateMotion begin="-0.11884221453382052s" dur="1.7146135131140592s" keyPoints="0;1" keyTimes="0;1" repeatCount="indefinite" calcMode="linear">
        <mpath xlink:href="#path47"></mpath>
      </animateMotion>
    </use>
    <path id="path48" d="M 1861.2479011489102 499.7250441111438
c 0 36.47784912802697 -8.925431169623618 10.477680068688597 -19.403111238312217 10.477680068688597
S 1822.4416786722857 536.2028932391707 1822.4416786722857 499.7250441111438
s 8.925431169623618 -10.477680068688597 19.403111238312217 -10.477680068688597
S 1861.2479011489102 463.24719498311686 1861.2479011489102 499.7250441111438
z" fill="none" stroke="none"></path>
    <use xlink:href="#path-dragfu5kfze-1" x="0" y="0" stroke="#0024ff">
      <animateMotion begin="-0.17028452794169163s" dur="1.7320216566187976s" keyPoints="1;0" keyTimes="0;1" repeatCount="indefinite" calcMode="linear">
        <mpath xlink:href="#path48"></mpath>
      </animateMotion>
    </use>
    <path id="path49" d="M 1892.6036122736787 109.00156222745547
c 0 24.73815486268634 -6.052952785550912 7.1056402265162895 -13.1585930120672 7.1056402265162895
S 1866.286426249544 133.7397170901418 1866.286426249544 109.00156222745547
s 6.052952785550912 -7.1056402265162895 13.1585930120672 -7.1056402265162895
S 1892.6036122736787 84.26340736476912 1892.6036122736787 109.00156222745547
z" fill="none" stroke="none"></path>
    <use xlink:href="#path-dragfu5kfze-1" x="0" y="0" stroke="#7dff00">
      <animateMotion begin="-0.03411937085467814s" dur="1.5029253637175768s" keyPoints="0;1" keyTimes="0;1" repeatCount="indefinite" calcMode="linear">
        <mpath xlink:href="#path49"></mpath>
      </animateMotion>
    </use>
  </g>
</svg>