<svg xmlns="http://www.w3.org/2000/svg"
  xmlns:xlink="http://www.w3.org/1999/xlink" style="margin:auto;background-color:transparent;display:block;z-index:1;position:relative" width="1920" height="975" preserveAspectRatio="xMidYMid" viewBox="0 0 1920 975">
  <g transform="translate(960,487.5) scale(1,1) translate(-960,-487.5)">
    <defs>
      <path id="path-apl5maw2u3i-1" d="M-35 -35L35 -35L35 35L-35 35Z" fill="none" stroke="inherit" stroke-width="4.333333333333334" transform="scale(0.3)"></path>
      <path id="path-apl5maw2u3i-2" d="M0 -37A37 37 0 0 1 0 37A37 37 0 0 1 0 -37" fill="none" stroke="inherit" stroke-width="4.333333333333334" transform="scale(0.3)"></path>
      <path id="path-apl5maw2u3i-3" d="M0 -34.641L40 34.641L-40 34.641Z" fill="none" stroke="inherit" stroke-width="4.333333333333334" transform="scale(0.3)"></path>
    </defs>
    <path id="path0" d="M 60.498791884803694 794.440837551894
c 0 48.61947904139579 -11.896255510128757 13.96516951189028 -25.861425022019038 13.96516951189028
S 8.775941840765622 843.0603165932898 8.775941840765622 794.440837551894
s 11.896255510128757 -13.96516951189028 25.861425022019038 -13.96516951189028
S 60.498791884803694 745.8213585104982 60.498791884803694 794.440837551894
z" fill="none" stroke="none"></path>
    <use xlink:href="#path-apl5maw2u3i-3" x="0" y="0" stroke="#95d5ee">
      <animateMotion begin="-0.3894223408315543s" dur="1.652089815776299s" keyPoints="0;1" keyTimes="0;1" repeatCount="indefinite" calcMode="linear">
        <mpath xlink:href="#path0"></mpath>
      </animateMotion>
    </use>
    <path id="path1" d="M 127.74752297132211 910.6209056668376
c 0 56.522115763925406 -13.829879389045576 16.235075804531768 -30.064955193577344 16.235075804531768
S 67.61761258416742 967.143021430763 67.61761258416742 910.6209056668376
s 13.829879389045576 -16.235075804531768 30.064955193577344 -16.235075804531768
S 127.74752297132211 854.0987899029122 127.74752297132211 910.6209056668376
z" fill="none" stroke="none"></path>
    <use xlink:href="#path-apl5maw2u3i-1" x="0" y="0" stroke="#ffb6bb">
      <animateMotion begin="-0.34432273235846117s" dur="1.7408925170952072s" keyPoints="0;1" keyTimes="0;1" repeatCount="indefinite" calcMode="linear">
        <mpath xlink:href="#path1"></mpath>
      </animateMotion>
    </use>
    <path id="path2" d="M 117.95439155964502 461.86595847286037
c 0 36.53356353851 -8.939063418997128 10.493683144040109 -19.432746563037234 10.493683144040109
S 79.08889843357056 498.3995220113704 79.08889843357056 461.86595847286037
s 8.939063418997128 -10.493683144040109 19.432746563037234 -10.493683144040109
S 117.95439155964502 425.33239493435036 117.95439155964502 461.86595847286037
z" fill="none" stroke="none"></path>
    <use xlink:href="#path-apl5maw2u3i-1" x="0" y="0" stroke="#ffe691">
      <animateMotion begin="-0.22973859422725512s" dur="1.5062330373007455s" keyPoints="0;1" keyTimes="0;1" repeatCount="indefinite" calcMode="linear">
        <mpath xlink:href="#path2"></mpath>
      </animateMotion>
    </use>
    <path id="path3" d="M 202.83875381786297 216.72406310812528
c 0 61.36174484769736 -15.014043952096161 17.625182030721582 -32.63922598281774 17.625182030721582
S 137.56030185222747 278.08580795582264 137.56030185222747 216.72406310812528
s 15.014043952096161 -17.625182030721582 32.63922598281774 -17.625182030721582
S 202.83875381786297 155.3623182604279 202.83875381786297 216.72406310812528
z" fill="none" stroke="none"></path>
    <use xlink:href="#path-apl5maw2u3i-2" x="0" y="0" stroke="#95d5ee">
      <animateMotion begin="-0.24917780137469803s" dur="1.9110477572857434s" keyPoints="0;1" keyTimes="0;1" repeatCount="indefinite" calcMode="linear">
        <mpath xlink:href="#path3"></mpath>
      </animateMotion>
    </use>
    <path id="path4" d="M 229.5138065058079 602.691450845871
c 0 36.82936699552506 -9.011440860607195 10.578647966799752 -19.590088827406944 10.578647966799752
S 190.333628850994 639.5208178413961 190.333628850994 602.691450845871
s 9.011440860607195 -10.578647966799752 19.590088827406944 -10.578647966799752
S 229.5138065058079 565.8620838503459 229.5138065058079 602.691450845871
z" fill="none" stroke="none"></path>
    <use xlink:href="#path-apl5maw2u3i-3" x="0" y="0" stroke="#ffb6bb">
      <animateMotion begin="-0.26469878604985264s" dur="2.000147226490408s" keyPoints="1;0" keyTimes="0;1" repeatCount="indefinite" calcMode="linear">
        <mpath xlink:href="#path4"></mpath>
      </animateMotion>
    </use>
    <path id="path5" d="M 265.71353131111 723.0041048632221
c 0 34.03849905412475 -8.328568917498608 9.777015685759237 -18.105584603257842 9.777015685759237
S 229.50236210459428 757.0426039173468 229.50236210459428 723.0041048632221
s 8.328568917498608 -9.777015685759237 18.105584603257842 -9.777015685759237
S 265.71353131111 688.9656058090974 265.71353131111 723.0041048632221
z" fill="none" stroke="none"></path>
    <use xlink:href="#path-apl5maw2u3i-1" x="0" y="0" stroke="#95d5ee">
      <animateMotion begin="-0.3595861049774018s" dur="1.5946347488533075s" keyPoints="0;1" keyTimes="0;1" repeatCount="indefinite" calcMode="linear">
        <mpath xlink:href="#path5"></mpath>
      </animateMotion>
    </use>
    <path id="path6" d="M 291.03244160520535 887.5698171012209
c 0 23.697900642824965 -5.798422497712491 6.806843801662491 -12.605266299374982 6.806843801662491
S 265.82190900645537 911.2677177440459 265.82190900645537 887.5698171012209
s 5.798422497712491 -6.806843801662491 12.605266299374982 -6.806843801662491
S 291.03244160520535 863.871916458396 291.03244160520535 887.5698171012209
z" fill="none" stroke="none"></path>
    <use xlink:href="#path-apl5maw2u3i-1" x="0" y="0" stroke="#ffb6bb">
      <animateMotion begin="-0.30401650665142943s" dur="1.6239383423457503s" keyPoints="1;0" keyTimes="0;1" repeatCount="indefinite" calcMode="linear">
        <mpath xlink:href="#path6"></mpath>
      </animateMotion>
    </use>
    <path id="path7" d="M 326.53808195127283 355.9633053064114
c 0 48.04302657457114 -11.755208629948255 13.799592739504476 -25.554801369452733 13.799592739504476
S 275.4284792123674 404.00633188098254 275.4284792123674 355.9633053064114
s 11.755208629948255 -13.799592739504476 25.554801369452733 -13.799592739504476
S 326.53808195127283 307.9202787318403 326.53808195127283 355.9633053064114
z" fill="none" stroke="none"></path>
    <use xlink:href="#path-apl5maw2u3i-2" x="0" y="0" stroke="#95d5ee">
      <animateMotion begin="-0.3477094288679069s" dur="1.194381751335149s" keyPoints="1;0" keyTimes="0;1" repeatCount="indefinite" calcMode="linear">
        <mpath xlink:href="#path7"></mpath>
      </animateMotion>
    </use>
    <path id="path8" d="M 352.0118609473062 715.7389713714556
c 0 29.488323088250723 -7.215227989678367 8.470050248752868 -15.685278238431234 8.470050248752868
S 320.64130447044374 745.2272944597063 320.64130447044374 715.7389713714556
s 7.215227989678367 -8.470050248752868 15.685278238431234 -8.470050248752868
S 352.0118609473062 686.2506482832049 352.0118609473062 715.7389713714556
z" fill="none" stroke="none"></path>
    <use xlink:href="#path-apl5maw2u3i-2" x="0" y="0" stroke="#ffb6bb">
      <animateMotion begin="-0.11306898184865381s" dur="1.627542735487881s" keyPoints="1;0" keyTimes="0;1" repeatCount="indefinite" calcMode="linear">
        <mpath xlink:href="#path8"></mpath>
      </animateMotion>
    </use>
    <path id="path9" d="M 390.65048045655243 76.52928083443079
c 0 58.49126512455112 -14.311692530475272 16.800682535775323 -31.112375066250593 16.800682535775323
S 328.42573032405124 135.02054595898193 328.42573032405124 76.52928083443079
s 14.311692530475272 -16.800682535775323 31.112375066250593 -16.800682535775323
S 390.65048045655243 18.038015709879673 390.65048045655243 76.52928083443079
z" fill="none" stroke="none"></path>
    <use xlink:href="#path-apl5maw2u3i-3" x="0" y="0" stroke="#ffb6bb">
      <animateMotion begin="-0.4701777700414263s" dur="1.894254729075004s" keyPoints="1;0" keyTimes="0;1" repeatCount="indefinite" calcMode="linear">
        <mpath xlink:href="#path9"></mpath>
      </animateMotion>
    </use>
    <path id="path10" d="M 428.40029927612443 127.24680597145176
c 0 42.86105085549611 -10.487278400812876 12.311152905302073 -22.79843130611495 12.311152905302073
S 382.80343666389456 170.10785682694788 382.80343666389456 127.24680597145176
s 10.487278400812876 -12.311152905302073 22.79843130611495 -12.311152905302073
S 428.40029927612443 84.38575511595565 428.40029927612443 127.24680597145176
z" fill="none" stroke="none"></path>
    <use xlink:href="#path-apl5maw2u3i-2" x="0" y="0" stroke="#ffe691">
      <animateMotion begin="-0.034453524150886115s" dur="1.1505302012708065s" keyPoints="1;0" keyTimes="0;1" repeatCount="indefinite" calcMode="linear">
        <mpath xlink:href="#path10"></mpath>
      </animateMotion>
    </use>
    <path id="path11" d="M 478.6013978812611 878.0417611759494
c 0 33.55213314157473 -8.209564492087432 9.637314838537423 -17.846879330624855 9.637314838537423
S 442.9076392200114 911.5938943175241 442.9076392200114 878.0417611759494
s 8.209564492087432 -9.637314838537423 17.846879330624855 -9.637314838537423
S 478.6013978812611 844.4896280343747 478.6013978812611 878.0417611759494
z" fill="none" stroke="none"></path>
    <use xlink:href="#path-apl5maw2u3i-1" x="0" y="0" stroke="#ffb6bb">
      <animateMotion begin="-0.08449792404108125s" dur="1.925290921646046s" keyPoints="1;0" keyTimes="0;1" repeatCount="indefinite" calcMode="linear">
        <mpath xlink:href="#path11"></mpath>
      </animateMotion>
    </use>
    <path id="path12" d="M 509.1510169261943 149.4626793260842
c 0 45.46886520625186 -11.125360635572264 13.060205963497877 -24.185566599070143 13.060205963497877
S 460.77988372805396 194.9315445323361 460.77988372805396 149.4626793260842
s 11.125360635572264 -13.060205963497877 24.185566599070143 -13.060205963497877
S 509.1510169261943 103.99381411983235 509.1510169261943 149.4626793260842
z" fill="none" stroke="none"></path>
    <use xlink:href="#path-apl5maw2u3i-2" x="0" y="0" stroke="#ffb6bb">
      <animateMotion begin="-0.22843081793456765s" dur="1.1058232058792996s" keyPoints="0;1" keyTimes="0;1" repeatCount="indefinite" calcMode="linear">
        <mpath xlink:href="#path12"></mpath>
      </animateMotion>
    </use>
    <path id="path13" d="M 529.6753994920732 739.1819109239267
c 0 29.763903285214106 -7.282657186807706 8.549206262774264 -15.83186344958197 8.549206262774264
S 498.01167259290924 768.9458142091408 498.01167259290924 739.1819109239267
s 7.282657186807706 -8.549206262774264 15.83186344958197 -8.549206262774264
S 529.6753994920732 709.4180076387125 529.6753994920732 739.1819109239267
z" fill="none" stroke="none"></path>
    <use xlink:href="#path-apl5maw2u3i-1" x="0" y="0" stroke="#ffb6bb">
      <animateMotion begin="-0.2234964019815317s" dur="1.0896384297230273s" keyPoints="1;0" keyTimes="0;1" repeatCount="indefinite" calcMode="linear">
        <mpath xlink:href="#path13"></mpath>
      </animateMotion>
    </use>
    <path id="path14" d="M 589.1617640122174 541.6545224782378
c 0 59.90636832984383 -14.657941187089445 17.207148350061527 -31.865089537150972 17.207148350061527
S 525.4315849379154 601.5608908080817 525.4315849379154 541.6545224782378
s 14.657941187089445 -17.207148350061527 31.865089537150972 -17.207148350061527
S 589.1617640122174 481.748154148394 589.1617640122174 541.6545224782378
z" fill="none" stroke="none"></path>
    <use xlink:href="#path-apl5maw2u3i-3" x="0" y="0" stroke="#95d5ee">
      <animateMotion begin="-0.1412265979479723s" dur="1.1469895782336657s" keyPoints="0;1" keyTimes="0;1" repeatCount="indefinite" calcMode="linear">
        <mpath xlink:href="#path14"></mpath>
      </animateMotion>
    </use>
    <path id="path15" d="M 628.0214991060479 786.110847359937
c 0 45.948870644169034 -11.242808774637103 13.19807986587834 -24.440888640515443 13.19807986587834
S 579.139721825017 832.059718004106 579.139721825017 786.110847359937
s 11.242808774637103 -13.19807986587834 24.440888640515443 -13.19807986587834
S 628.0214991060479 740.161976715768 628.0214991060479 786.110847359937
z" fill="none" stroke="none"></path>
    <use xlink:href="#path-apl5maw2u3i-1" x="0" y="0" stroke="#95d5ee">
      <animateMotion begin="-0.3554932005074363s" dur="1.5848135001387542s" keyPoints="0;1" keyTimes="0;1" repeatCount="indefinite" calcMode="linear">
        <mpath xlink:href="#path15"></mpath>
      </animateMotion>
    </use>
    <path id="path16" d="M 661.2347521730551 724.022625392287
c 0 27.835733958514908 -6.810871074955775 7.995370392339388 -14.806241467295163 7.995370392339388
S 631.6222692384647 751.8583593508018 631.6222692384647 724.022625392287
s 6.810871074955775 -7.995370392339388 14.806241467295163 -7.995370392339388
S 661.2347521730551 696.1868914337721 661.2347521730551 724.022625392287
z" fill="none" stroke="none"></path>
    <use xlink:href="#path-apl5maw2u3i-2" x="0" y="0" stroke="#ffb6bb">
      <animateMotion begin="-0.5133240519345293s" dur="1.5409728163831538s" keyPoints="1;0" keyTimes="0;1" repeatCount="indefinite" calcMode="linear">
        <mpath xlink:href="#path16"></mpath>
      </animateMotion>
    </use>
    <path id="path17" d="M 693.6206990469633 703.4869099718188
c 0 20.819975659781484 -5.094249363563554 5.980205774618086 -11.07445513818164 5.980205774618086
S 671.4717887706 724.3068856316003 671.4717887706 703.4869099718188
s 5.094249363563554 -5.980205774618086 11.07445513818164 -5.980205774618086
S 693.6206990469633 682.6669343120374 693.6206990469633 703.4869099718188
z" fill="none" stroke="none"></path>
    <use xlink:href="#path-apl5maw2u3i-1" x="0" y="0" stroke="#95d5ee">
      <animateMotion begin="-0.2625142711992561s" dur="1.1274943058529514s" keyPoints="1;0" keyTimes="0;1" repeatCount="indefinite" calcMode="linear">
        <mpath xlink:href="#path17"></mpath>
      </animateMotion>
    </use>
    <path id="path18" d="M 749.7827452958268 219.3598030196472
c 0 49.399720255389276 -12.087165594403759 14.189281349952239 -26.276446944355996 14.189281349952239
S 697.2298514071147 268.7595232750365 697.2298514071147 219.3598030196472
s 12.087165594403759 -14.189281349952239 26.276446944355996 -14.189281349952239
S 749.7827452958268 169.96008276425792 749.7827452958268 219.3598030196472
z" fill="none" stroke="none"></path>
    <use xlink:href="#path-apl5maw2u3i-1" x="0" y="0" stroke="#ffb6bb">
      <animateMotion begin="-0.44918585043591774s" dur="1.7152382578516163s" keyPoints="1;0" keyTimes="0;1" repeatCount="indefinite" calcMode="linear">
        <mpath xlink:href="#path18"></mpath>
      </animateMotion>
    </use>
    <path id="path19" d="M 766.9267443138722 337.0949350501615
c 0 27.561343967420317 -6.7437330984113535 7.9165562459611545 -14.660289344372508 7.9165562459611545
S 737.6061656251272 364.6562790175818 737.6061656251272 337.0949350501615
s 6.7437330984113535 -7.9165562459611545 14.660289344372508 -7.9165562459611545
S 766.9267443138722 309.53359108274117 766.9267443138722 337.0949350501615
z" fill="none" stroke="none"></path>
    <use xlink:href="#path-apl5maw2u3i-1" x="0" y="0" stroke="#ffb6bb">
      <animateMotion begin="-0.0321520722638666s" dur="1.3203397053989547s" keyPoints="0;1" keyTimes="0;1" repeatCount="indefinite" calcMode="linear">
        <mpath xlink:href="#path19"></mpath>
      </animateMotion>
    </use>
    <path id="path20" d="M 818.775145591689 721.1596838377507
c 0 30.548595110751172 -7.474656250502946 8.77459646798172 -16.249252718484666 8.77459646798172
S 786.2766401547198 751.7082789485019 786.2766401547198 721.1596838377507
s 7.474656250502946 -8.77459646798172 16.249252718484666 -8.77459646798172
S 818.775145591689 690.6110887269995 818.775145591689 721.1596838377507
z" fill="none" stroke="none"></path>
    <use xlink:href="#path-apl5maw2u3i-1" x="0" y="0" stroke="#ffe691">
      <animateMotion begin="-0.47339600791731895s" dur="1.4680857599322237s" keyPoints="1;0" keyTimes="0;1" repeatCount="indefinite" calcMode="linear">
        <mpath xlink:href="#path20"></mpath>
      </animateMotion>
    </use>
    <path id="path21" d="M 855.3082590215445 783.6531540181437
c 0 33.27898809739195 -8.142731130212923 9.558858283293432 -17.701589413506355 9.558858283293432
S 819.9050801945318 816.9321421155356 819.9050801945318 783.6531540181437
s 8.142731130212923 -9.558858283293432 17.701589413506355 -9.558858283293432
S 855.3082590215445 750.3741659207518 855.3082590215445 783.6531540181437
z" fill="none" stroke="none"></path>
    <use xlink:href="#path-apl5maw2u3i-3" x="0" y="0" stroke="#95d5ee">
      <animateMotion begin="-0.5209934069824043s" dur="1.8432585055478468s" keyPoints="0;1" keyTimes="0;1" repeatCount="indefinite" calcMode="linear">
        <mpath xlink:href="#path21"></mpath>
      </animateMotion>
    </use>
    <path id="path22" d="M 891.1316070650786 919.8620386527647
c 0 22.42177003220186 -5.486177773836625 6.440295647547343 -11.926473421383967 6.440295647547343
S 867.2786602223106 942.2838086849665 867.2786602223106 919.8620386527647
s 5.486177773836625 -6.440295647547343 11.926473421383967 -6.440295647547343
S 891.1316070650786 897.4402686205628 891.1316070650786 919.8620386527647
z" fill="none" stroke="none"></path>
    <use xlink:href="#path-apl5maw2u3i-2" x="0" y="0" stroke="#95d5ee">
      <animateMotion begin="-0.044405458311683764s" dur="1.0948384295884452s" keyPoints="1;0" keyTimes="0;1" repeatCount="indefinite" calcMode="linear">
        <mpath xlink:href="#path22"></mpath>
      </animateMotion>
    </use>
    <path id="path23" d="M 930.658975339549 81.06390608432532
c 0 54.58252301540961 -13.3552981846215 15.67795873846872 -29.033256923090217 15.67795873846872
S 872.5924614933685 135.64642909973495 872.5924614933685 81.06390608432532
s 13.3552981846215 -15.67795873846872 29.033256923090217 -15.67795873846872
S 930.658975339549 26.48138306891571 930.658975339549 81.06390608432532
z" fill="none" stroke="none"></path>
    <use xlink:href="#path-apl5maw2u3i-2" x="0" y="0" stroke="#ffb6bb">
      <animateMotion begin="-0.21050800754325608s" dur="2.083889442713335s" keyPoints="1;0" keyTimes="0;1" repeatCount="indefinite" calcMode="linear">
        <mpath xlink:href="#path23"></mpath>
      </animateMotion>
    </use>
    <path id="path24" d="M 941.755313043654 629.8221242878293
c 0 35.10991277273556 -8.590723338009765 10.08476217940277 -18.675485517412532 10.08476217940277
S 904.404342008829 664.9320370605649 904.404342008829 629.8221242878293
s 8.590723338009765 -10.08476217940277 18.675485517412532 -10.08476217940277
S 941.755313043654 594.7122115150937 941.755313043654 629.8221242878293
z" fill="none" stroke="none"></path>
    <use xlink:href="#path-apl5maw2u3i-1" x="0" y="0" stroke="#95d5ee">
      <animateMotion begin="-0.5083120985953066s" dur="1.839029047189272s" keyPoints="0;1" keyTimes="0;1" repeatCount="indefinite" calcMode="linear">
        <mpath xlink:href="#path24"></mpath>
      </animateMotion>
    </use>
    <path id="path25" d="M 983.2001438332072 446.9814137004879
c 0 31.731768488337956 -7.7641561194869455 9.114444140267285 -16.87860025975423 9.114444140267285
S 949.4429433136988 478.71318218882584 949.4429433136988 446.9814137004879
s 7.7641561194869455 -9.114444140267285 16.87860025975423 -9.114444140267285
S 983.2001438332072 415.24964521214997 983.2001438332072 446.9814137004879
z" fill="none" stroke="none"></path>
    <use xlink:href="#path-apl5maw2u3i-1" x="0" y="0" stroke="#95d5ee">
      <animateMotion begin="-0.15738012777409002s" dur="1.4767681674156778s" keyPoints="0;1" keyTimes="0;1" repeatCount="indefinite" calcMode="linear">
        <mpath xlink:href="#path25"></mpath>
      </animateMotion>
    </use>
    <path id="path26" d="M 1037.1616358811086 554.3412592567881
c 0 29.067002876029374 -7.112139001581655 8.34903274098716 -15.461171742568816 8.34903274098716
S 1006.239292395971 583.4082621328175 1006.239292395971 554.3412592567881
s 7.112139001581655 -8.34903274098716 15.461171742568816 -8.34903274098716
S 1037.1616358811086 525.2742563807587 1037.1616358811086 554.3412592567881
z" fill="none" stroke="none"></path>
    <use xlink:href="#path-apl5maw2u3i-3" x="0" y="0" stroke="#ffb6bb">
      <animateMotion begin="-0.5086738410546424s" dur="1.1935369672107259s" keyPoints="1;0" keyTimes="0;1" repeatCount="indefinite" calcMode="linear">
        <mpath xlink:href="#path26"></mpath>
      </animateMotion>
    </use>
    <path id="path27" d="M 1066.879886478261 482.99227332148797
c 0 39.92467190407739 -9.768802699933829 11.467724908617976 -21.236527608551803 11.467724908617976
S 1024.4068312611573 522.9169452255653 1024.4068312611573 482.99227332148797
s 9.768802699933829 -11.467724908617976 21.236527608551803 -11.467724908617976
S 1066.879886478261 443.0676014174106 1066.879886478261 482.99227332148797
z" fill="none" stroke="none"></path>
    <use xlink:href="#path-apl5maw2u3i-3" x="0" y="0" stroke="#ffe691">
      <animateMotion begin="-0.5291523595455102s" dur="1.7415154923997171s" keyPoints="1;0" keyTimes="0;1" repeatCount="indefinite" calcMode="linear">
        <mpath xlink:href="#path27"></mpath>
      </animateMotion>
    </use>
    <path id="path28" d="M 1112.7727524349311 498.0307633663183
c 0 35.5626406099037 -8.701497170508352 10.214801026248937 -18.91629819675729 10.214801026248937
S 1074.9401560414167 533.593403976222 1074.9401560414167 498.0307633663183
s 8.701497170508352 -10.214801026248937 18.91629819675729 -10.214801026248937
S 1112.7727524349311 462.4681227564146 1112.7727524349311 498.0307633663183
z" fill="none" stroke="none"></path>
    <use xlink:href="#path-apl5maw2u3i-1" x="0" y="0" stroke="#ffb6bb">
      <animateMotion begin="-0.28036283206856727s" dur="1.2298245119856677s" keyPoints="1;0" keyTimes="0;1" repeatCount="indefinite" calcMode="linear">
        <mpath xlink:href="#path28"></mpath>
      </animateMotion>
    </use>
    <path id="path29" d="M 1155.0671311543672 926.3374798027958
c 0 26.309801782626298 -6.437504691493668 7.557070724796916 -13.994575416290584 7.557070724796916
S 1127.0779803217858 952.6472815854221 1127.0779803217858 926.3374798027958
s 6.437504691493668 -7.557070724796916 13.994575416290584 -7.557070724796916
S 1155.0671311543672 900.0276780201694 1155.0671311543672 926.3374798027958
z" fill="none" stroke="none"></path>
    <use xlink:href="#path-apl5maw2u3i-1" x="0" y="0" stroke="#ffb6bb">
      <animateMotion begin="-0.3052644332694662s" dur="1.3113755999562708s" keyPoints="0;1" keyTimes="0;1" repeatCount="indefinite" calcMode="linear">
        <mpath xlink:href="#path29"></mpath>
      </animateMotion>
    </use>
    <path id="path30" d="M 1190.0303030034258 923.2434546523895
c 0 65.0435990660987 -15.914923175747552 18.68273590196452 -34.59765907771207 18.68273590196452
S 1120.8349848480018 988.2870537184881 1120.8349848480018 923.2434546523895
s 15.914923175747552 -18.68273590196452 34.59765907771207 -18.68273590196452
S 1190.0303030034258 858.1998555862908 1190.0303030034258 923.2434546523895
z" fill="none" stroke="none"></path>
    <use xlink:href="#path-apl5maw2u3i-2" x="0" y="0" stroke="#95d5ee">
      <animateMotion begin="-0.07182177078394475s" dur="1.9580601959748427s" keyPoints="1;0" keyTimes="0;1" repeatCount="indefinite" calcMode="linear">
        <mpath xlink:href="#path30"></mpath>
      </animateMotion>
    </use>
    <path id="path31" d="M 1230.8334621882393 459.6048010157771
c 0 48.64011176366452 -11.901303942173232 13.971095932116405 -25.872399874289638 13.971095932116405
S 1179.08866243966 508.2449127794416 1179.08866243966 459.6048010157771
s 11.901303942173232 -13.971095932116405 25.872399874289638 -13.971095932116405
S 1230.8334621882393 410.96468925211263 1230.8334621882393 459.6048010157771
z" fill="none" stroke="none"></path>
    <use xlink:href="#path-apl5maw2u3i-3" x="0" y="0" stroke="#95d5ee">
      <animateMotion begin="-0.02555847476947556s" dur="1.615747004971121s" keyPoints="0;1" keyTimes="0;1" repeatCount="indefinite" calcMode="linear">
        <mpath xlink:href="#path31"></mpath>
      </animateMotion>
    </use>
    <path id="path32" d="M 1262.866449009828 361.6164049027498
c 0 32.77050284808592 -8.01831452665932 9.412804009556595 -17.431118536215916 9.412804009556595
S 1228.0042119373961 394.38690775083575 1228.0042119373961 361.6164049027498
s 8.01831452665932 -9.412804009556595 17.431118536215916 -9.412804009556595
S 1262.866449009828 328.8459020546639 1262.866449009828 361.6164049027498
z" fill="none" stroke="none"></path>
    <use xlink:href="#path-apl5maw2u3i-1" x="0" y="0" stroke="#ffe691">
      <animateMotion begin="-0.191992954328702s" dur="1.228727433604832s" keyPoints="1;0" keyTimes="0;1" repeatCount="indefinite" calcMode="linear">
        <mpath xlink:href="#path32"></mpath>
      </animateMotion>
    </use>
    <path id="path33" d="M 1320.2945666105697 809.7750134770025
c 0 50.33779974420167 -12.316695682091897 14.458729713760054 -26.77542539585195 14.458729713760054
S 1266.743715818866 860.1128132212042 1266.743715818866 809.7750134770025
s 12.316695682091897 -14.458729713760054 26.77542539585195 -14.458729713760054
S 1320.2945666105697 759.4372137328008 1320.2945666105697 809.7750134770025
z" fill="none" stroke="none"></path>
    <use xlink:href="#path-apl5maw2u3i-2" x="0" y="0" stroke="#95d5ee">
      <animateMotion begin="-0.06229377028056948s" dur="1.2686609100073891s" keyPoints="1;0" keyTimes="0;1" repeatCount="indefinite" calcMode="linear">
        <mpath xlink:href="#path33"></mpath>
      </animateMotion>
    </use>
    <path id="path34" d="M 1331.329778165055 678.981233908029
c 0 31.574532951185972 -7.72568359443912 9.0692807412981 -16.79496433573722 9.0692807412981
S 1297.7398494935806 710.555766859215 1297.7398494935806 678.981233908029
s 7.72568359443912 -9.0692807412981 16.79496433573722 -9.0692807412981
S 1331.329778165055 647.406700956843 1331.329778165055 678.981233908029
z" fill="none" stroke="none"></path>
    <use xlink:href="#path-apl5maw2u3i-1" x="0" y="0" stroke="#ffb6bb">
      <animateMotion begin="-0.12865029048506899s" dur="2.0136014778662266s" keyPoints="1;0" keyTimes="0;1" repeatCount="indefinite" calcMode="linear">
        <mpath xlink:href="#path34"></mpath>
      </animateMotion>
    </use>
    <path id="path35" d="M 1366.7362316556143 137.10286330415497
c 0 45.99569411087677 -11.25426558032091 13.211529159507156 -24.465794739828066 13.211529159507156
S 1317.8046421759584 183.09855741503173 1317.8046421759584 137.10286330415497
s 11.25426558032091 -13.211529159507156 24.465794739828066 -13.211529159507156
S 1366.7362316556143 91.1071691932782 1366.7362316556143 137.10286330415497
z" fill="none" stroke="none"></path>
    <use xlink:href="#path-apl5maw2u3i-3" x="0" y="0" stroke="#ffe691">
      <animateMotion begin="-0.2843996618223123s" dur="1.234399792827823s" keyPoints="0;1" keyTimes="0;1" repeatCount="indefinite" calcMode="linear">
        <mpath xlink:href="#path35"></mpath>
      </animateMotion>
    </use>
    <path id="path36" d="M 1401.1317951000874 861.057249305243
c 0 40.71768039492502 -9.96283669237527 11.695503943223143 -21.658340635598414 11.695503943223143
S 1357.8151138288904 901.774929700168 1357.8151138288904 861.057249305243
s 9.96283669237527 -11.695503943223143 21.658340635598414 -11.695503943223143
S 1401.1317951000874 820.339568910318 1401.1317951000874 861.057249305243
z" fill="none" stroke="none"></path>
    <use xlink:href="#path-apl5maw2u3i-2" x="0" y="0" stroke="#95d5ee">
      <animateMotion begin="-0.286119710267138s" dur="1.3689777836775237s" keyPoints="1;0" keyTimes="0;1" repeatCount="indefinite" calcMode="linear">
        <mpath xlink:href="#path36"></mpath>
      </animateMotion>
    </use>
    <path id="path37" d="M 1432.1600106215392 818.4052704489817
c 0 22.848263422529055 -5.590532539554981 6.562799068173239 -12.15333160772822 6.562799068173239
S 1407.8533474060828 841.2535338715107 1407.8533474060828 818.4052704489817
s 5.590532539554981 -6.562799068173239 12.15333160772822 -6.562799068173239
S 1432.1600106215392 795.5570070264527 1432.1600106215392 818.4052704489817
z" fill="none" stroke="none"></path>
    <use xlink:href="#path-apl5maw2u3i-1" x="0" y="0" stroke="#ffe691">
      <animateMotion begin="-0.25299665097377877s" dur="1.7983416082143717s" keyPoints="0;1" keyTimes="0;1" repeatCount="indefinite" calcMode="linear">
        <mpath xlink:href="#path37"></mpath>
      </animateMotion>
    </use>
    <path id="path38" d="M 1490.985309897414 376.65354682225546
c 0 27.69927051908398 -6.777481084456718 7.956173446970931 -14.73365453142765 7.956173446970931
S 1461.5180008345587 404.35281734133946 1461.5180008345587 376.65354682225546
s 6.777481084456718 -7.956173446970931 14.73365453142765 -7.956173446970931
S 1490.985309897414 348.95427630317147 1490.985309897414 376.65354682225546
z" fill="none" stroke="none"></path>
    <use xlink:href="#path-apl5maw2u3i-2" x="0" y="0" stroke="#ffe691">
      <animateMotion begin="-0.23513694036778168s" dur="1.2015987278085463s" keyPoints="0;1" keyTimes="0;1" repeatCount="indefinite" calcMode="linear">
        <mpath xlink:href="#path38"></mpath>
      </animateMotion>
    </use>
    <path id="path39" d="M 1506.5394670049116 398.8517259648482
c 0 24.97504910863293 -6.110916271261249 7.173684318437119 -13.284600589698368 7.173684318437119
S 1479.9702658255148 423.82677507348114 1479.9702658255148 398.8517259648482
s 6.110916271261249 -7.173684318437119 13.284600589698368 -7.173684318437119
S 1506.5394670049116 373.8766768562152 1506.5394670049116 398.8517259648482
z" fill="none" stroke="none"></path>
    <use xlink:href="#path-apl5maw2u3i-3" x="0" y="0" stroke="#95d5ee">
      <animateMotion begin="-0.0022917220170818107s" dur="1.588621911267501s" keyPoints="0;1" keyTimes="0;1" repeatCount="indefinite" calcMode="linear">
        <mpath xlink:href="#path39"></mpath>
      </animateMotion>
    </use>
    <path id="path40" d="M 1570.737222822583 846.8481454302607
c 0 53.02337716607036 -12.973805051272533 15.230118973232978 -28.20392402450551 15.230118973232978
S 1514.3293747735718 899.871522596331 1514.3293747735718 846.8481454302607
s 12.973805051272533 -15.230118973232978 28.20392402450551 -15.230118973232978
S 1570.737222822583 793.8247682641904 1570.737222822583 846.8481454302607
z" fill="none" stroke="none"></path>
    <use xlink:href="#path-apl5maw2u3i-2" x="0" y="0" stroke="#95d5ee">
      <animateMotion begin="-0.5251790178768366s" dur="1.6933494536052474s" keyPoints="1;0" keyTimes="0;1" repeatCount="indefinite" calcMode="linear">
        <mpath xlink:href="#path40"></mpath>
      </animateMotion>
    </use>
    <path id="path41" d="M 1610.7431225823757 165.9479307432181
c 0 46.95014832347437 -11.48780224936075 13.48568090142349 -24.97348315078424 13.48568090142349
S 1560.7961562808073 212.89807906669247 1560.7961562808073 165.9479307432181
s 11.48780224936075 -13.48568090142349 24.97348315078424 -13.48568090142349
S 1610.7431225823757 118.99778241974374 1610.7431225823757 165.9479307432181
z" fill="none" stroke="none"></path>
    <use xlink:href="#path-apl5maw2u3i-3" x="0" y="0" stroke="#95d5ee">
      <animateMotion begin="-0.31878119298463675s" dur="1.8046447893827462s" keyPoints="0;1" keyTimes="0;1" repeatCount="indefinite" calcMode="linear">
        <mpath xlink:href="#path41"></mpath>
      </animateMotion>
    </use>
    <path id="path42" d="M 1650.1030127797023 722.5258337874448
c 0 25.606979276451224 -6.265537482535938 7.355196175150883 -13.62073365768682 7.355196175150883
S 1622.8615454643289 748.1328130638959 1622.8615454643289 722.5258337874448
s 6.265537482535938 -7.355196175150883 13.62073365768682 -7.355196175150883
S 1650.1030127797023 696.9188545109936 1650.1030127797023 722.5258337874448
z" fill="none" stroke="none"></path>
    <use xlink:href="#path-apl5maw2u3i-1" x="0" y="0" stroke="#ffe691">
      <animateMotion begin="-0.4807205973464829s" dur="1.119358612377729s" keyPoints="0;1" keyTimes="0;1" repeatCount="indefinite" calcMode="linear">
        <mpath xlink:href="#path42"></mpath>
      </animateMotion>
    </use>
    <path id="path43" d="M 1704.7665673455626 577.5200613314217
c 0 52.08343196573945 -12.743818459702204 14.96013471356346 -27.703953173265667 14.96013471356346
S 1649.3586609990311 629.6034932971612 1649.3586609990311 577.5200613314217
s 12.743818459702204 -14.96013471356346 27.703953173265667 -14.96013471356346
S 1704.7665673455626 525.4366293656823 1704.7665673455626 577.5200613314217
z" fill="none" stroke="none"></path>
    <use xlink:href="#path-apl5maw2u3i-2" x="0" y="0" stroke="#ffb6bb">
      <animateMotion begin="-0.38688853253626176s" dur="1.842339964457241s" keyPoints="0;1" keyTimes="0;1" repeatCount="indefinite" calcMode="linear">
        <mpath xlink:href="#path43"></mpath>
      </animateMotion>
    </use>
    <path id="path44" d="M 1701.9871796747045 433.59702261015553
c 0 44.95292071428992 -10.999118898177318 12.912009141338594 -23.911128039515912 12.912009141338594
S 1654.1649235956727 478.54994332444545 1654.1649235956727 433.59702261015553
s 10.999118898177318 -12.912009141338594 23.911128039515912 -12.912009141338594
S 1701.9871796747045 388.6441018958656 1701.9871796747045 433.59702261015553
z" fill="none" stroke="none"></path>
    <use xlink:href="#path-apl5maw2u3i-3" x="0" y="0" stroke="#ffe691">
      <animateMotion begin="-0.0012110224450717856s" dur="1.8561999526417559s" keyPoints="1;0" keyTimes="0;1" repeatCount="indefinite" calcMode="linear">
        <mpath xlink:href="#path44"></mpath>
      </animateMotion>
    </use>
    <path id="path45" d="M 1773.9628226198515 620.9331381680387
c 0 58.017922509132276 -14.19587465648981 16.66472242283587 -30.86059707932568 16.66472242283587
S 1712.2416284612 678.951060677171 1712.2416284612 620.9331381680387
s 14.19587465648981 -16.66472242283587 30.86059707932568 -16.66472242283587
S 1773.9628226198515 562.9152156589064 1773.9628226198515 620.9331381680387
z" fill="none" stroke="none"></path>
    <use xlink:href="#path-apl5maw2u3i-2" x="0" y="0" stroke="#ffe691">
      <animateMotion begin="-0.3097587102157776s" dur="1.1605296209992133s" keyPoints="0;1" keyTimes="0;1" repeatCount="indefinite" calcMode="linear">
        <mpath xlink:href="#path45"></mpath>
      </animateMotion>
    </use>
    <path id="path46" d="M 1781.4847091888216 738.6026960305439
c 0 47.38823750806975 -11.594994283889404 13.61151502891365 -25.206509312803057 13.61151502891365
S 1731.0716905632155 785.9909335386137 1731.0716905632155 738.6026960305439
s 11.594994283889404 -13.61151502891365 25.206509312803057 -13.61151502891365
S 1781.4847091888216 691.2144585224742 1781.4847091888216 738.6026960305439
z" fill="none" stroke="none"></path>
    <use xlink:href="#path-apl5maw2u3i-3" x="0" y="0" stroke="#ffe691">
      <animateMotion begin="-0.10868657691411125s" dur="1.6696465222826584s" keyPoints="1;0" keyTimes="0;1" repeatCount="indefinite" calcMode="linear">
        <mpath xlink:href="#path46"></mpath>
      </animateMotion>
    </use>
    <path id="path47" d="M 1840.9062718003222 489.1263814402945
c 0 37.01482385715227 -9.056818603345768 10.631917490884165 -19.68873609422993 10.631917490884165
S 1801.5287996118625 526.1412052974467 1801.5287996118625 489.1263814402945
s 9.056818603345768 -10.631917490884165 19.68873609422993 -10.631917490884165
S 1840.9062718003222 452.1115575831422 1840.9062718003222 489.1263814402945
z" fill="none" stroke="none"></path>
    <use xlink:href="#path-apl5maw2u3i-3" x="0" y="0" stroke="#ffb6bb">
      <animateMotion begin="-0.529726655579878s" dur="1.855834272223151s" keyPoints="0;1" keyTimes="0;1" repeatCount="indefinite" calcMode="linear">
        <mpath xlink:href="#path47"></mpath>
      </animateMotion>
    </use>
    <path id="path48" d="M 1860.1733265297862 911.495591005218
c 0 50.3432294031826 -12.318024215672336 14.46028929665883 -26.778313512331167 14.46028929665883
S 1806.616699505124 961.8388204084006 1806.616699505124 911.495591005218
s 12.318024215672336 -14.46028929665883 26.778313512331167 -14.46028929665883
S 1860.1733265297862 861.1523616020354 1860.1733265297862 911.495591005218
z" fill="none" stroke="none"></path>
    <use xlink:href="#path-apl5maw2u3i-1" x="0" y="0" stroke="#ffe691">
      <animateMotion begin="-0.41333563990787503s" dur="1.5306124747971936s" keyPoints="1;0" keyTimes="0;1" repeatCount="indefinite" calcMode="linear">
        <mpath xlink:href="#path48"></mpath>
      </animateMotion>
    </use>
    <path id="path49" d="M 1924.0652446021254 875.7028057340303
c 0 58.370650920406185 -14.282180544354702 16.766038030329437 -31.04821857468414 16.766038030329437
S 1861.9688074527571 934.0734566544365 1861.9688074527571 875.7028057340303
s 14.282180544354702 -16.766038030329437 31.04821857468414 -16.766038030329437
S 1924.0652446021254 817.3321548136241 1924.0652446021254 875.7028057340303
z" fill="none" stroke="none"></path>
    <use xlink:href="#path-apl5maw2u3i-1" x="0" y="0" stroke="#ffb6bb">
      <animateMotion begin="-0.013814586800935776s" dur="1.5586754021579943s" keyPoints="1;0" keyTimes="0;1" repeatCount="indefinite" calcMode="linear">
        <mpath xlink:href="#path49"></mpath>
      </animateMotion>
    </use>
  </g>
</svg>